<svg xmlns="http://www.w3.org/2000/svg" viewBox="0 0 256 256"><path fill="currentColor" d="m231.65 194.55l-33.19-157.8a16 16 0 0 0-19-12.39l-46.81 10.06a16.08 16.08 0 0 0-12.3 19l33.19 157.8A16 16 0 0 0 169.16 224a16.3 16.3 0 0 0 3.38-.36l46.81-10.06a16.09 16.09 0 0 0 12.3-19.03M136 50.15v-.09l46.8-10l3.33 15.87L139.33 66Zm6.62 31.47l46.82-10.05l3.34 15.9L146 97.53Zm6.64 31.57l46.82-10.06l13.3 63.24l-46.82 10.06ZM216 197.94l-46.8 10l-3.33-15.87l46.8-10.07l3.33 15.85zM104 32H56a16 16 0 0 0-16 16v160a16 16 0 0 0 16 16h48a16 16 0 0 0 16-16V48a16 16 0 0 0-16-16M56 48h48v16H56Zm0 32h48v96H56Zm48 128H56v-16h48z"/></svg>
