<svg width="1024" height="1024" viewBox="0 0 1024 1024" fill="none" xmlns="http://www.w3.org/2000/svg">
<mask id="mask0_757_102259" style="mask-type:alpha" maskUnits="userSpaceOnUse" x="97" y="222" width="830" height="647">
<path fill-rule="evenodd" clip-rule="evenodd" d="M729.48 756.469C729.478 756.471 729.475 756.473 729.472 756.475C729.606 756.361 729.625 756.36 729.48 756.469ZM690.046 767.723C685.618 766.845 680.868 765.982 675.803 765.143C634.63 758.32 576.843 753.701 512.383 753.12C447.923 752.538 390.063 756.114 348.774 762.193C343.694 762.941 338.929 763.717 334.486 764.515C338.914 765.394 343.664 766.256 348.729 767.095C389.902 773.918 447.689 778.537 512.149 779.119C576.609 779.7 634.469 776.124 675.758 770.045C680.838 769.298 685.603 768.521 690.046 767.723ZM295.261 752.552C295.118 752.441 295.137 752.442 295.269 752.558C295.266 752.556 295.264 752.554 295.261 752.552ZM295.052 775.769C295.054 775.768 295.057 775.766 295.06 775.764C294.926 775.877 294.907 775.878 295.052 775.769ZM729.263 779.68C729.266 779.682 729.268 779.684 729.271 779.686C729.413 779.798 729.395 779.796 729.263 779.68ZM511.932 803.118C642.542 804.296 748.572 788.686 748.756 768.252C748.941 747.819 643.21 730.299 512.6 729.121C381.99 727.942 275.96 743.552 275.776 763.986C275.591 784.42 381.322 801.939 511.932 803.118Z" fill="url(#paint0_linear_757_102259)"/>
<path fill-rule="evenodd" clip-rule="evenodd" d="M729.48 756.469C729.478 756.471 729.475 756.473 729.472 756.475C729.606 756.361 729.625 756.36 729.48 756.469ZM690.046 767.723C685.618 766.845 680.868 765.982 675.803 765.143C634.63 758.32 576.843 753.701 512.383 753.12C447.923 752.538 390.063 756.114 348.774 762.193C343.694 762.941 338.929 763.717 334.486 764.515C338.914 765.394 343.664 766.256 348.729 767.095C389.902 773.918 447.689 778.537 512.149 779.119C576.609 779.7 634.469 776.124 675.758 770.045C680.838 769.298 685.603 768.521 690.046 767.723ZM295.261 752.552C295.118 752.441 295.137 752.442 295.269 752.558C295.266 752.556 295.264 752.554 295.261 752.552ZM295.052 775.769C295.054 775.768 295.057 775.766 295.06 775.764C294.926 775.877 294.907 775.878 295.052 775.769ZM729.263 779.68C729.266 779.682 729.268 779.684 729.271 779.686C729.413 779.798 729.395 779.796 729.263 779.68ZM511.932 803.118C642.542 804.296 748.572 788.686 748.756 768.252C748.941 747.819 643.21 730.299 512.6 729.121C381.99 727.942 275.96 743.552 275.776 763.986C275.591 784.42 381.322 801.939 511.932 803.118Z" fill="url(#paint1_linear_757_102259)"/>
<mask id="mask1_757_102259" style="mask-type:alpha" maskUnits="userSpaceOnUse" x="97" y="121" width="830" height="748">
<g style="mix-blend-mode:darken">
<ellipse cx="512" cy="766" rx="102.062" ry="102.062" transform="rotate(-15 512 766)" fill="#9038FF"/>
</g>
<rect x="-0.183013" y="-0.683013" width="579" height="159" transform="matrix(0.5 -0.866025 -0.866025 -0.5 635.881 702.112)" fill="#D9D9D9" stroke="black" stroke-linejoin="round"/>
<rect x="387.183" y="702.612" width="579" height="159" transform="rotate(-120 387.183 702.612)" fill="#D9D9D9" stroke="black" stroke-linejoin="round"/>
</mask>
<g mask="url(#mask1_757_102259)">
<rect x="-15" y="222" width="1071" height="979" fill="#D9D9D9"/>
</g>
</mask>
<g mask="url(#mask0_757_102259)">
<path fill-rule="evenodd" clip-rule="evenodd" d="M1024 0H0V1024H1024V0ZM666 766C666 851.052 597.052 920 512 920C426.948 920 358 851.052 358 766C358 680.949 426.948 612 512 612C597.052 612 666 680.949 666 766ZM610.584 739.585C625.173 794.031 592.862 849.996 538.416 864.585C483.969 879.174 428.005 846.863 413.416 792.416C398.827 737.969 431.138 682.005 485.584 667.416C540.031 652.827 595.995 685.138 610.584 739.585Z" fill="url(#paint2_diamond_757_102259)"/>
</g>
<defs>
<linearGradient id="paint0_linear_757_102259" x1="472.734" y1="695.005" x2="499.213" y2="841.207" gradientUnits="userSpaceOnUse">
<stop stop-color="#9444FB"/>
<stop offset="1" stop-color="#4D08A4"/>
</linearGradient>
<linearGradient id="paint1_linear_757_102259" x1="543.866" y1="836.077" x2="534.684" y2="776.831" gradientUnits="userSpaceOnUse">
<stop stop-opacity="0.19"/>
<stop offset="1" stop-opacity="0"/>
</linearGradient>
<radialGradient id="paint2_diamond_757_102259" cx="0" cy="0" r="1" gradientUnits="userSpaceOnUse" gradientTransform="translate(510 767) rotate(-90) scale(1452.5)">
<stop stop-color="#8300EF"/>
<stop offset="1" stop-color="#3B82F6"/>
</radialGradient>
</defs>
</svg>
